<svg width="119" height="119" viewBox="0 0 119 119" fill="none" xmlns="http://www.w3.org/2000/svg">
<path d="M30.0173 56.5715L82.4052 15.6537C82.5421 15.5459 82.7066 15.4789 82.8798 15.4604C83.0531 15.4419 83.228 15.4727 83.3845 15.5491C83.5411 15.6256 83.6729 15.7447 83.7648 15.8927C83.8568 16.0406 83.9051 16.2116 83.9043 16.3858V25.3689C83.9043 25.9383 83.637 26.4845 83.1954 26.8332L41.3595 59.5001L83.1954 92.1669C83.6486 92.5156 83.9043 93.0618 83.9043 93.6312V102.614C83.9043 103.393 83.0095 103.823 82.4052 103.346L30.0173 62.4286C29.572 62.0812 29.2118 61.637 28.9641 61.1295C28.7163 60.622 28.5876 60.0648 28.5876 59.5001C28.5876 58.9353 28.7163 58.3781 28.9641 57.8706C29.2118 57.3631 29.572 56.9189 30.0173 56.5715Z" fill="black"/>
</svg>
