<svg width="27" height="27" viewBox="0 0 27 27" fill="none" xmlns="http://www.w3.org/2000/svg">
<path d="M23.9836 22.5308L17.136 15.6832C18.1986 14.3095 18.7734 12.6299 18.7734 10.8633C18.7734 8.74863 17.9481 6.76582 16.4558 5.2708C14.9634 3.77578 12.9753 2.95312 10.8633 2.95312C8.75127 2.95312 6.76318 3.77842 5.2708 5.2708C3.77578 6.76318 2.95312 8.74863 2.95312 10.8633C2.95312 12.9753 3.77842 14.9634 5.2708 16.4558C6.76318 17.9508 8.74863 18.7734 10.8633 18.7734C12.6299 18.7734 14.3068 18.1986 15.6806 17.1387L22.5281 23.9836C22.5482 24.0037 22.572 24.0196 22.5983 24.0305C22.6245 24.0414 22.6527 24.047 22.6811 24.047C22.7095 24.047 22.7376 24.0414 22.7638 24.0305C22.7901 24.0196 22.8139 24.0037 22.834 23.9836L23.9836 22.8366C24.0037 22.8165 24.0196 22.7927 24.0305 22.7665C24.0414 22.7402 24.047 22.7121 24.047 22.6837C24.047 22.6553 24.0414 22.6272 24.0305 22.6009C24.0196 22.5747 24.0037 22.5508 23.9836 22.5308ZM15.0398 15.0398C13.9219 16.1552 12.44 16.7695 10.8633 16.7695C9.28652 16.7695 7.80469 16.1552 6.68672 15.0398C5.57139 13.9219 4.95703 12.44 4.95703 10.8633C4.95703 9.28652 5.57139 7.80205 6.68672 6.68672C7.80469 5.57139 9.28652 4.95703 10.8633 4.95703C12.44 4.95703 13.9245 5.56875 15.0398 6.68672C16.1552 7.80469 16.7695 9.28652 16.7695 10.8633C16.7695 12.44 16.1552 13.9245 15.0398 15.0398Z" fill="black" fill-opacity="0.5"/>
</svg>
