<svg width="119" height="119" viewBox="0 0 119 119" fill="none" xmlns="http://www.w3.org/2000/svg">
<path d="M88.9827 56.5715L36.5948 15.6537C36.4579 15.5459 36.2934 15.4789 36.1202 15.4604C35.9469 15.4419 35.772 15.4727 35.6155 15.5491C35.4589 15.6256 35.3271 15.7447 35.2352 15.8927C35.1432 16.0406 35.0949 16.2116 35.0957 16.3858V25.3689C35.0957 25.9383 35.363 26.4845 35.8046 26.8332L77.6405 59.5001L35.8046 92.1669C35.3514 92.5156 35.0957 93.0618 35.0957 93.6312V102.614C35.0957 103.393 35.9905 103.823 36.5948 103.346L88.9827 62.4286C89.428 62.0812 89.7882 61.637 90.0359 61.1295C90.2837 60.622 90.4124 60.0648 90.4124 59.5001C90.4124 58.9353 90.2837 58.3781 90.0359 57.8706C89.7882 57.3631 89.428 56.9189 88.9827 56.5715Z" fill="black"/>
</svg>
