<svg width="36" height="36" viewBox="0 0 36 36" fill="none" xmlns="http://www.w3.org/2000/svg">
<path d="M25.5 12C25.5 10.4087 24.8679 8.88258 23.7426 7.75736C22.6174 6.63214 21.0913 6 19.5 6H16.5C14.9087 6 13.3826 6.63214 12.2574 7.75736C11.1321 8.88258 10.5 10.4087 10.5 12C10.5 13.5913 11.1321 15.1174 12.2574 16.2426C13.3826 17.3679 14.9087 18 16.5 18H19.5C21.0913 18 22.6174 18.6321 23.7426 19.7574C24.8679 20.8826 25.5 22.4087 25.5 24C25.5 25.5913 24.8679 27.1174 23.7426 28.2426C22.6174 29.3679 21.0913 30 19.5 30H16.5C14.9087 30 13.3826 29.3679 12.2574 28.2426C11.1321 27.1174 10.5 25.5913 10.5 24" stroke="white" stroke-width="2" stroke-linecap="round" stroke-linejoin="round"/>
</svg>
